# xmcd
#
# Track frame offsets:
#	150
#	15548
#	27470
#	43091
#	53857
#	68461
#	81923
#	94221
#	107313
#	120224
#
# Disc length: 1751 seconds
#
# Revision: 0
# Processed by: cddbd v1.5.2PL0 Copyright (c) Steve Scherf et al.
# Submitted via: dBpowerAMP V4.0
#
DISCID=7106d50a
DTITLE=Margo Smith - A Woman
DYEAR=1979
DGENRE=Country
TTITLE0=Still A Woman
TTITLE1=If I Give My Girl To You
TTITLE2=The Belle Of Buttercup Lane
TTITLE3=Don't You Love Me Anymore
TTITLE4=My Greatest Sin
TTITLE5=Traces
TTITLE6=Ain't We Just A Couple Of Fools
TTITLE7=Tennessee Sandman
TTITLE8=We'd Better Love It Over
TTITLE9=You're The Song
EXTD=
EXTT0=
EXTT1=
EXTT2=
EXTT3=
EXTT4=
EXTT5=
EXTT6=
EXTT7=
EXTT8=
EXTT9=
PLAYORDER=
